<?xml version="1.0" standalone="no"?>
<!DOCTYPE svg PUBLIC "-//W3C//DTD SVG 20010904//EN"
 "http://www.w3.org/TR/2001/REC-SVG-20010904/DTD/svg10.dtd">
<svg version="1.0" xmlns="http://www.w3.org/2000/svg"
 width="1178.000000pt" height="1178.000000pt" viewBox="0 0 1178.000000 1178.000000"
 preserveAspectRatio="xMidYMid meet">
<metadata>
Created by potrace 1.14, written by Peter Selinger 2001-2017
</metadata>
<g transform="translate(0.000000,1178.000000) scale(0.100000,-0.100000)"
fill="#000000" stroke="none">
<path d="M5895 11756 c-77 -30 -382 -187 -504 -260 -52 -31 -104 -56 -115 -56
-12 0 -39 -11 -61 -25 -22 -13 -80 -45 -130 -71 -120 -62 -231 -135 -400 -264
-77 -58 -169 -122 -205 -141 -43 -23 -98 -67 -165 -134 -55 -55 -140 -132
-189 -170 -332 -262 -420 -350 -491 -488 -11 -21 -36 -50 -55 -64 -92 -68
-222 -237 -518 -673 -202 -296 -446 -760 -583 -1105 -68 -173 -85 -218 -164
-452 -145 -428 -237 -797 -294 -1178 -40 -270 -53 -516 -48 -880 6 -418 18
-559 92 -1040 32 -214 96 -505 135 -620 23 -66 62 -183 87 -260 139 -431 223
-654 319 -845 72 -145 378 -664 503 -855 162 -248 456 -613 559 -696 24 -19
65 -64 92 -100 26 -36 62 -77 80 -90 18 -13 100 -92 184 -174 83 -83 198 -188
256 -234 58 -46 113 -93 124 -105 10 -11 19 -19 20 -16 0 2 37 -22 81 -55 401
-298 876 -567 1212 -685 106 -37 185 -23 335 63 41 23 94 51 119 61 125 53
182 83 278 143 58 37 124 81 146 98 71 56 113 76 147 73 31 -3 33 -6 38 -48 7
-57 15 -70 46 -70 55 0 151 81 141 119 -4 18 -1 21 26 21 37 0 91 30 106 58
13 24 5 32 -31 32 -24 0 -28 4 -28 26 0 38 29 92 53 100 17 5 30 -3 62 -40 45
-51 63 -56 90 -26 10 11 30 20 46 20 17 0 46 15 76 39 63 49 153 150 153 171
0 25 -27 57 -55 64 -29 7 -43 1 -138 -61 -37 -25 -70 -43 -73 -40 -2 2 32 37
76 77 96 87 114 90 173 32 23 -22 52 -45 65 -51 24 -13 28 -8 34 39 3 23 6 25
49 22 44 -3 48 -1 80 40 18 24 52 61 76 82 50 45 56 80 23 133 -30 50 -45 46
-162 -49 -15 -12 -31 -19 -34 -15 -16 16 76 116 221 240 104 88 190 173 246
242 27 33 70 78 94 99 25 21 56 54 69 74 13 20 67 84 121 142 53 58 114 135
136 172 21 36 69 106 106 155 36 48 88 130 114 180 49 97 108 189 194 308 81
110 132 201 171 301 19 51 58 132 86 181 142 245 213 435 377 998 182 622 251
1114 251 1765 -1 670 -78 1208 -263 1830 -138 468 -412 1023 -749 1523 -21 31
-36 62 -33 67 4 6 2 9 -3 8 -6 -2 -35 32 -66 75 -31 42 -52 77 -48 77 4 0 2 4
-4 8 -6 4 -62 75 -124 157 -201 267 -322 412 -523 628 -358 385 -697 672
-1032 873 -100 60 -207 132 -245 164 -14 11 -70 43 -125 69 -110 53 -341 186
-448 259 -62 42 -74 47 -135 49 -52 2 -81 -2 -127 -21z"/>
</g>
</svg>
